<?xml version="1.0" encoding="utf-8"?><svg xmlns="http://www.w3.org/2000/svg" xmlns:xlink="http://www.w3.org/1999/xlink"><symbol viewBox="0 0 448 512" id="arrow-right" xmlns="http://www.w3.org/2000/svg"><path fill="currentColor" d="M313.941 216H12c-6.627 0-12 5.373-12 12v56c0 6.627 5.373 12 12 12h301.941v46.059c0 21.382 25.851 32.09 40.971 16.971l86.059-86.059c9.373-9.373 9.373-24.569 0-33.941l-86.059-86.059c-15.119-15.119-40.971-4.411-40.971 16.971V216z"/></symbol><symbol viewBox="0 0 320 512" id="chevron-right" xmlns="http://www.w3.org/2000/svg"><path fill="currentColor" d="M285.476 272.971L91.132 467.314c-9.373 9.373-24.569 9.373-33.941 0l-22.667-22.667c-9.357-9.357-9.375-24.522-.04-33.901L188.505 256 34.484 101.255c-9.335-9.379-9.317-24.544.04-33.901l22.667-22.667c9.373-9.373 24.569-9.373 33.941 0L285.475 239.03c9.373 9.372 9.373 24.568.001 33.941z"/></symbol><symbol viewBox="0 0 185.343 185.343" id="chevron-thin" xmlns="http://www.w3.org/2000/svg"><path fill="currentColor" d="M51.707 185.343a10.692 10.692 0 01-7.593-3.149 10.724 10.724 0 010-15.175l74.352-74.347L44.114 18.32c-4.194-4.194-4.194-10.987 0-15.175 4.194-4.194 10.987-4.194 15.18 0l81.934 81.934c4.194 4.194 4.194 10.987 0 15.175l-81.934 81.939a10.678 10.678 0 01-7.587 3.15z"/></symbol><symbol viewBox="0 0 26 26" fill="none" id="close-btn" xmlns="http://www.w3.org/2000/svg"><path d="M25.276 23.26L2.648.633l-1.94 1.94L23.337 25.2l1.94-1.94z" fill="currentColor"/><path d="M23.338.632L.711 23.26l1.94 1.94L25.278 2.572l-1.94-1.94z" fill="currentColor"/></symbol><symbol viewBox="0 0 192.701 192.701" id="double-chevron" xmlns="http://www.w3.org/2000/svg"><path d="M29.641 96.345l74.54-75.61c4.704-4.74 4.704-12.439 0-17.179-4.704-4.74-12.319-4.74-17.011 0l-82.997 84.2c-4.511 4.559-4.535 12.608 0 17.191l83.009 84.2a11.952 11.952 0 0017.011 0c4.704-4.74 4.704-12.439 0-17.179L29.641 96.345z"/><path d="M113.853 96.345l74.54-75.61c4.704-4.74 4.704-12.439 0-17.179-4.704-4.74-12.319-4.74-17.011 0l-82.997 84.2c-4.511 4.559-4.535 12.608 0 17.191l82.997 84.2c4.704 4.74 12.319 4.74 17.011 0 4.704-4.74 4.704-12.439 0-17.179l-74.54-75.623z"/></symbol><symbol viewBox="0 0 512 512" id="envelope" xmlns="http://www.w3.org/2000/svg"><path fill="currentColor" d="M502.3 190.8c3.9-3.1 9.7-.2 9.7 4.7V400c0 26.5-21.5 48-48 48H48c-26.5 0-48-21.5-48-48V195.6c0-5 5.7-7.8 9.7-4.7 22.4 17.4 52.1 39.5 154.1 113.6 21.1 15.4 56.7 47.8 92.2 47.6 35.7.3 72-32.8 92.3-47.6 102-74.1 131.6-96.3 154-113.7zM256 320c23.2.4 56.6-29.2 73.4-41.4 132.7-96.3 142.8-104.7 173.4-128.7 5.8-4.5 9.2-11.5 9.2-18.9v-19c0-26.5-21.5-48-48-48H48C21.5 64 0 85.5 0 112v19c0 7.4 3.4 14.3 9.2 18.9 30.6 23.9 40.7 32.4 173.4 128.7 16.8 12.2 50.2 41.8 73.4 41.4z"/></symbol><symbol fill="currentColor" viewBox="0 0 50 50" id="instagram" xmlns="http://www.w3.org/2000/svg"><path d="M34 3H16C8.83 3 3 8.83 3 16v18c0 7.17 5.83 13 13 13h18c7.17 0 13-5.83 13-13V16c0-7.17-5.83-13-13-13zm-9 33c-6.07 0-11-4.93-11-11s4.93-11 11-11 11 4.93 11 11-4.93 11-11 11zm12-21c-1.1 0-2-.9-2-2s.9-2 2-2 2 .9 2 2-.9 2-2 2z"/><path d="M34 25c0 4.96-4.04 9-9 9s-9-4.04-9-9 4.04-9 9-9 9 4.04 9 9z"/></symbol><symbol viewBox="0 0 384 512" id="map-marker" xmlns="http://www.w3.org/2000/svg"><path fill="currentColor" d="M172.268 501.67C26.97 291.031 0 269.413 0 192 0 85.961 85.961 0 192 0s192 85.961 192 192c0 77.413-26.97 99.031-172.268 309.67-9.535 13.774-29.93 13.773-39.464 0zM192 272c44.183 0 80-35.817 80-80s-35.817-80-80-80-80 35.817-80 80 35.817 80 80 80z"/></symbol><symbol viewBox="0 0 512 512" id="phone" xmlns="http://www.w3.org/2000/svg"><path fill="currentColor" d="M493.4 24.6l-104-24c-11.3-2.6-22.9 3.3-27.5 13.9l-48 112c-4.2 9.8-1.4 21.3 6.9 28l60.6 49.6c-36 76.7-98.9 140.5-177.2 177.2l-49.6-60.6c-6.8-8.3-18.2-11.1-28-6.9l-112 48C3.9 366.5-2 378.1.6 389.4l24 104C27.1 504.2 36.7 512 48 512c256.1 0 464-207.5 464-464 0-11.2-7.7-20.9-18.6-23.4z"/></symbol><symbol fill="currentColor" viewBox="0 0 50 50" id="telegram" xmlns="http://www.w3.org/2000/svg"><path d="M46.137 6.552c-.75-.636-1.928-.727-3.146-.238h-.002c-1.281.514-36.261 15.518-37.685 16.131-.259.09-2.521.934-2.288 2.814.208 1.695 2.026 2.397 2.248 2.478l8.893 3.045c.59 1.964 2.765 9.21 3.246 10.758.3.965.789 2.233 1.646 2.494.752.29 1.5.025 1.984-.355l5.437-5.043 8.777 6.845.209.125c.596.264 1.167.396 1.712.396.421 0 .825-.079 1.211-.237 1.315-.54 1.841-1.793 1.896-1.935l6.556-34.077c.4-1.82-.156-2.746-.694-3.201zM22 32l-3 8-3-10 23-17-17 19z"/></symbol><symbol fill="currentColor" viewBox="0 0 50 50" id="viber" xmlns="http://www.w3.org/2000/svg"><path d="M44.78 13.155c-.78-2.786-2.325-4.99-4.591-6.55-2.86-1.971-6.149-2.669-8.989-3.093-3.931-.586-7.491-.669-10.882-.254-3.181.39-5.574 1.011-7.76 2.016-4.281 1.967-6.851 5.15-7.637 9.461a59.5 59.5 0 00-.787 5.788c-.343 4.172-.032 7.863.952 11.285.959 3.336 2.635 5.719 5.123 7.284.635.399 1.446.688 2.231.966.446.158.879.311 1.235.476.328.152.328.181.325.455-.028 2.372 0 7.019 0 7.019l.006.992h1.783l.291-.28c.188-.181 4.605-4.447 6.177-6.164l.214-.241c.271-.31.271-.31.55-.315a188.51 188.51 0 006.452-.241c2.614-.143 5.642-.395 8.493-1.585 2.61-1.09 4.514-2.819 5.659-5.14 1.194-2.421 1.903-5.043 2.169-8.016.466-5.225.135-9.76-1.014-13.863zm-9.398 20.324c-.654 1.069-1.633 1.809-2.786 2.291-.842.352-1.702.278-2.532-.074-6.968-2.948-12.43-7.595-16.042-14.274-.744-1.375-1.262-2.874-1.855-4.328-.122-.299-.114-.65-.167-.976.051-2.35 1.853-3.671 3.673-4.072.696-.154 1.311.092 1.828.585a16.076 16.076 0 013.408 4.716c.373.777.205 1.466-.43 2.044a5.56 5.56 0 01-.411.339c-1.446 1.088-1.659 1.91-.888 3.547 1.313 2.786 3.49 4.656 6.308 5.816.743.306 1.442.155 2.009-.447.076-.081.162-.158.218-.251 1.111-1.853 2.722-1.669 4.209-.612.977.695 1.927 1.426 2.893 2.135 1.473 1.081 1.46 2.097.565 3.561zM26.143 15a5.95 5.95 0 00-.979.081 1 1 0 11-.329-1.973A8.072 8.072 0 0126.143 13C30.476 13 34 16.525 34 20.857c0 .44-.037.88-.108 1.309a1.002 1.002 0 01-1.153.82 1 1 0 01-.82-1.152A5.864 5.864 0 0026.143 15zM31 21a1 1 0 01-2 0c0-1.654-1.346-3-3-3a1 1 0 010-2c2.757 0 5 2.243 5 5zm5.709 2.221a.999.999 0 11-1.95-.442 8.87 8.87 0 00.218-1.961c0-4.862-3.956-8.818-8.818-8.818a8.87 8.87 0 00-1.961.218.999.999 0 11-.442-1.95A10.875 10.875 0 0126.16 10c5.965 0 10.818 4.853 10.818 10.818 0 .811-.091 1.62-.269 2.403z"/></symbol></svg>