<?xml version="1.0" encoding="utf-8"?><svg width="142" height="118" viewBox="0 0 142 118" xmlns="http://www.w3.org/2000/svg" xmlns:xlink="http://www.w3.org/1999/xlink"><svg viewBox="0 0 512 512" width="17.5" height="14" id="envelope-gold" xmlns="http://www.w3.org/2000/svg"><path fill="#b9a25f" d="M464 64H48C21.49 64 0 85.49 0 112v288c0 26.51 21.49 48 48 48h416c26.51 0 48-21.49 48-48V112c0-26.51-21.49-48-48-48zm0 48v40.805c-22.422 18.259-58.168 46.651-134.587 106.49-16.841 13.247-50.201 45.072-73.413 44.701-23.208.375-56.579-31.459-73.413-44.701C106.18 199.465 70.425 171.067 48 152.805V112h416zM48 400V214.398c22.914 18.251 55.409 43.862 104.938 82.646 21.857 17.205 60.134 55.186 103.062 54.955 42.717.231 80.509-37.199 103.053-54.947 49.528-38.783 82.032-64.401 104.947-82.653V400H48z"/></svg><svg width="16" height="12" fill="none" viewBox="0 0 16 12" id="form-checkbox-tick" x="18" y="14" xmlns="http://www.w3.org/2000/svg"><path fill-rule="evenodd" clip-rule="evenodd" d="M15.461.806a1.1 1.1 0 01.033 1.555l-8.442 8.8a1.1 1.1 0 01-1.587 0L.306 5.785A1.1 1.1 0 011.894 4.26l4.365 4.55L13.906.839a1.1 1.1 0 011.555-.033z" fill="#fff"/></svg><svg width="18" height="20" fill="none" viewBox="0 0 18 20" id="input-date" x="34" y="26" xmlns="http://www.w3.org/2000/svg"><path fill-rule="evenodd" clip-rule="evenodd" d="M12 0a1 1 0 00-1 1v1H7V1a1 1 0 00-1-1H5a1 1 0 00-1 1v1H3a3 3 0 00-3 3v12a3 3 0 003 3h12a3 3 0 003-3V5a3 3 0 00-3-3h-1V1a1 1 0 00-1-1h-1zM3 5h12v12H3V5zm1 4a1 1 0 001 1h8a1 1 0 001-1V8a1 1 0 00-1-1H5a1 1 0 00-1 1v1z" fill="#829AB2"/></svg><svg viewBox="0 0 384 512" width="17.5" height="14" id="marker-gold" x="52" y="46" xmlns="http://www.w3.org/2000/svg"><path fill="#b9a25f" d="M172.268 501.67C26.97 291.031 0 269.413 0 192 0 85.961 85.961 0 192 0s192 85.961 192 192c0 77.413-26.97 99.031-172.268 309.67-9.535 13.774-29.93 13.773-39.464 0zM192 272c44.183 0 80-35.817 80-80s-35.817-80-80-80-80 35.817-80 80 35.817 80 80 80z"/></svg><svg viewBox="0 0 512 512" width="17.5" height="14" id="phone-gold" x="70" y="60" xmlns="http://www.w3.org/2000/svg"><path fill="#b9a25f" d="M497.39 361.8l-112-48a24 24 0 00-28 6.9l-49.6 60.6A370.66 370.66 0 01130.6 204.11l60.6-49.6a23.94 23.94 0 006.9-28l-48-112A24.16 24.16 0 00122.6.61l-104 24A24 24 0 000 48c0 256.5 207.9 464 464 464a24 24 0 0023.4-18.6l24-104a24.29 24.29 0 00-14.01-27.6z"/></svg><svg width="26" height="26" fill="none" viewBox="0 0 26 26" id="popup-close" x="88" y="74" xmlns="http://www.w3.org/2000/svg"><path d="M25.276 23.26L2.648.633l-1.94 1.94L23.337 25.2l1.94-1.94z" fill="#272526"/><path d="M23.338.632L.711 23.26l1.94 1.94L25.278 2.572l-1.94-1.94z" fill="#272526"/></svg><svg width="14" height="9" fill="none" viewBox="0 0 14 9" id="select2-arrow" x="114" y="100" xmlns="http://www.w3.org/2000/svg"><path d="M.48 1.664C-.095 1.02.363 0 1.226 0h11.546c.863 0 1.32 1.02.748 1.664L7.747 8.16a1 1 0 01-1.494 0L.479 1.664z" fill="#829AB2"/></svg><svg width="14" height="9" fill="none" viewBox="0 0 14 9" id="select2-arrow-active" x="128" y="109" xmlns="http://www.w3.org/2000/svg"><path d="M.48 1.664C-.095 1.02.363 0 1.226 0h11.546c.863 0 1.32 1.02.748 1.664L7.747 8.16a1 1 0 01-1.494 0L.479 1.664z" fill="#DD6900"/></svg></svg>