<svg width="30" height="30" version="1.1" id="Layer_1" xmlns="http://www.w3.org/2000/svg"
     xmlns:xlink="http://www.w3.org/1999/xlink" x="0px"
     y="0px"
     viewBox="0 0 512 512" style="enable-background:new 0 0 512 512;" xml:space="preserve">

			<path d="M55.431,0v435.034h62.005L213.644,512v-76.966h242.925V0H55.431z M72.409,16.978h367.182v231.596h-50.983l-73.274,58.62
				v-58.62H72.409V16.978z M439.591,418.056L439.591,418.056H196.666v58.62l-73.274-58.62H72.409V265.552h225.947v76.966
				l96.207-76.966h45.027V418.056z" fill="#191919"/>
  <rect x="109.122" y="56.494" width="293.772" height="16.978" fill="#191919"/>
  <rect x="109.122" y="101.686" width="293.772" height="16.978" fill="#191919"/>
  <rect x="109.122" y="146.88" width="293.772" height="16.978" fill="#191919"/>
  <rect x="109.122" y="192.075" width="293.772" height="16.978" fill="#191919"/>
  <rect x="363.336" y="316.364" width="39.545" height="16.978" fill="#191919"/>
  <rect x="109.122" y="316.364" width="163.836" height="16.978" fill="#191919"/>
  <rect x="109.122" y="361.559" width="293.772" height="16.978" fill="#191919"/>
</svg>
